<?xml version="1.0" standalone="no"?>
<!DOCTYPE svg PUBLIC "-//W3C//DTD SVG 20010904//EN"
 "http://www.w3.org/TR/2001/REC-SVG-20010904/DTD/svg10.dtd">
<svg version="1.0" xmlns="http://www.w3.org/2000/svg"
 width="817.000000pt" height="684.000000pt" viewBox="0 0 817.000000 684.000000"
 preserveAspectRatio="xMidYMid meet">
<metadata>
Created by potrace 1.16, written by Peter Selinger 2001-2019
</metadata>
<g transform="translate(0.000000,684.000000) scale(0.100000,-0.100000)"
fill="#000000" stroke="none">
<path d="M3525 4836 c-122 -38 -225 -134 -225 -210 0 -22 -4 -26 -30 -26 -28
0 -33 -8 -139 -217 -250 -493 -529 -959 -845 -1413 -187 -268 -330 -439 -430
-512 -101 -73 -284 -1 -316 125 -6 23 -15 52 -20 65 -22 52 -94 6 -144 -93
-95 -191 -35 -392 146 -486 33 -18 60 -23 118 -23 67 -1 82 3 137 33 130 70
327 288 531 588 l97 142 476 0 476 1 7 -65 c8 -83 49 -299 76 -407 32 -123 52
-162 101 -195 39 -25 50 -28 128 -27 73 1 100 6 177 36 161 61 334 183 334
235 0 30 -26 53 -59 53 -33 0 -119 -29 -179 -59 -72 -37 -110 1 -146 146 -86
339 -125 839 -133 1711 -5 489 -8 586 -20 598 -17 17 -64 17 -118 0z m-226
-901 c14 -449 30 -823 36 -852 l5 -23 -349 0 c-293 0 -354 -2 -386 -16 -20 -8
-39 -13 -41 -11 -2 2 34 63 81 136 177 274 374 615 546 948 52 99 95 180 95
180 1 -1 7 -164 13 -362z"/>
<path d="M5590 4753 c-93 -14 -236 -49 -309 -75 -521 -184 -898 -626 -1023
-1203 -31 -143 -31 -413 0 -530 65 -239 227 -411 433 -460 83 -19 258 -19 349
0 156 33 316 101 458 196 39 27 72 44 72 39 0 -14 -83 -225 -123 -312 -75
-162 -170 -297 -237 -336 -41 -25 -53 -27 -150 -26 -154 1 -313 39 -443 105
-29 15 -52 20 -83 16 -99 -11 -253 -114 -270 -181 -6 -26 -3 -34 26 -58 41
-34 174 -83 300 -111 133 -30 351 -29 464 2 110 29 247 97 343 170 297 224
482 604 679 1392 19 76 34 147 34 158 0 76 -193 26 -300 -79 -38 -37 -51 -59
-69 -120 -88 -291 -287 -531 -500 -603 -64 -22 -187 -25 -265 -7 -159 36 -279
155 -339 337 -152 461 103 1155 503 1362 120 63 208 83 375 84 254 3 355 -44
355 -165 0 -54 -30 -117 -111 -237 -35 -52 -72 -106 -81 -120 -58 -85 34 -116
167 -57 96 44 195 156 304 344 122 211 107 354 -46 431 -78 39 -157 51 -328
49 -88 0 -171 -3 -185 -5z"/>
</g>
</svg>
